<?xml version="1.0" encoding="UTF-8" standalone="no"?>
<svg
   height="479pt"
   viewBox="0 -88 479.60456 479"
   width="479pt"
   version="1.1"
   id="svg3"
   sodipodi:docname="publii-cdn.svg"
   inkscape:version="1.4.1-rc (d9e8dc1fe0, 2025-03-10)"
   xmlns:inkscape="http://www.inkscape.org/namespaces/inkscape"
   xmlns:sodipodi="http://sodipodi.sourceforge.net/DTD/sodipodi-0.dtd"
   xmlns="http://www.w3.org/2000/svg"
   xmlns:svg="http://www.w3.org/2000/svg">
  <defs
     id="defs3" />
  <sodipodi:namedview
     id="namedview3"
     pagecolor="#ffffff"
     bordercolor="#000000"
     borderopacity="0.25"
     inkscape:showpageshadow="2"
     inkscape:pageopacity="0.0"
     inkscape:pagecheckerboard="0"
     inkscape:deskcolor="#d1d1d1"
     inkscape:document-units="pt"
     inkscape:zoom="0.90970772"
     inkscape:cx="247.88181"
     inkscape:cy="328.12737"
     inkscape:window-width="1406"
     inkscape:window-height="831"
     inkscape:window-x="0"
     inkscape:window-y="0"
     inkscape:window-maximized="1"
     inkscape:current-layer="svg3" />
  <linearGradient
     id="a"
     gradientUnits="userSpaceOnUse"
     x1="239.604558"
     x2="239.604558"
     y1="304.31424"
     y2=".31424">
    <stop
       offset="0"
       stop-color="#12c2e9"
       id="stop1" />
    <stop
       offset=".5"
       stop-color="#c471ed"
       id="stop2" />
    <stop
       offset=".982"
       stop-color="#f64f59"
       id="stop3" />
  </linearGradient>
  <path
     d="m 159.97312,137.79556 h 156.04622 v -2.28801 c 0,-10.02099 -8.12379,-18.14668 -18.14667,-18.14668 H 151.09234 c -16.99318,0 -30.76871,13.77554 -30.76871,30.76872 v 102.91716 c 0,10.02099 8.12379,18.14668 18.14667,18.14668 h 2.49482 V 156.80357 c 0,-10.49908 8.50892,-19.00801 19.008,-19.00801 z m 0,0"
     fill="#ee4e71"
     id="path1"
     style="stroke-width:0.485682" />
  <path
     d="m 163.58348,254.03863 v -80.12995 c 0,-8.71951 7.06895,-15.78846 15.78846,-15.78846 h 157.28889 v -2.17988 c 0,-10.02098 -8.12379,-18.14478 -18.14667,-18.14478 H 159.97312 c -10.49908,0 -19.008,8.50893 -19.008,19.00801 v 114.67598 c 0,10.02288 8.12379,18.14667 18.14667,18.14667 h 4.47169 z m 0,0"
     fill="#ffd866"
     id="path2"
     style="stroke-width:0.485682" />
  <g
     fill="#d6effb"
     id="g13"
     transform="matrix(0.48568203,0,0,0.48568203,115.46681,112.26121)">
    <path
       d="m 102.99219,390.02344 c -0.5,-0.92188 -0.95703,-1.86719 -1.36719,-2.83985 0.41016,0.97266 0.86719,1.91797 1.36719,2.83985 z m 0,0"
       id="path3-3" />
    <path
       d="m 120.40234,405.06641 c -0.99609,-0.36719 -1.96875,-0.77735 -2.91796,-1.23438 0.94921,0.45703 1.92187,0.86719 2.91796,1.23438 z m 0,0"
       id="path4" />
    <path
       d="m 123.45313,406.01172 c -1.03907,-0.26563 -2.05469,-0.58203 -3.05079,-0.94531 0.9961,0.36328 2.01172,0.67968 3.05079,0.94531 z m 0,0"
       id="path5" />
    <path
       d="m 499.44531,387.18359 c -0.41015,0.97266 -0.87109,1.91797 -1.37109,2.83985 0.5039,-0.92188 0.96094,-1.86719 1.37109,-2.83985 z m 0,0"
       id="path6" />
    <path
       d="m 502,374.52734 c 0,1.6836 -0.12891,3.33594 -0.375,4.95313 0.24609,-1.61719 0.375,-3.26953 0.375,-4.95313 z m 0,0"
       id="path7" />
    <path
       d="m 501.33984,381.08203 c -0.21875,1.05469 -0.48437,2.09766 -0.80078,3.11328 0.31641,-1.01953 0.58203,-2.05859 0.80078,-3.11328 z m 0,0"
       id="path8" />
    <path
       d="m 131.57812,407.03906 c -2.80468,0 -5.52734,-0.35547 -8.12499,-1.02344 2.59765,0.66797 5.32031,1.02344 8.12499,1.02344 z m 0,0"
       id="path9" />
    <path
       d="m 99.070312,374.52734 c 0,1.6836 0.128907,3.33594 0.375,4.95313 -0.25,-1.61719 -0.375,-3.26953 -0.375,-4.95313 z m 0,0"
       id="path10" />
    <path
       d="m 100.53125,384.19531 c -0.31641,-1.01953 -0.585938,-2.05859 -0.800781,-3.11328 0.214843,1.05469 0.484371,2.09375 0.800781,3.11328 z m 0,0"
       id="path11" />
    <path
       d="m 116.08203,403.11328 c -0.92187,-0.5 -1.8164,-1.04297 -2.67969,-1.62891 0.86329,0.58594 1.75782,1.12891 2.67969,1.62891 z m 0,0"
       id="path12" />
    <path
       d="M 469.49219,94.421875 H 131.57812 c -17.95312,0 -32.507808,14.554685 -32.507808,32.507815 V 291.91406 L 208.84766,195.0625 c 9.43359,-8.32422 23.74609,-7.76563 32.50781,1.26562 l 110.98437,114.42579 62.05078,-45.20704 c 8.39063,-6.11718 19.79688,-6.01562 28.08204,0.24219 L 502,310.75391 V 126.92969 C 502,108.97656 487.44531,94.421875 469.49219,94.421875 Z M 388.51562,220.70703 c -18.11328,0 -32.79687,-14.68359 -32.79687,-32.79297 0,-18.11328 14.68359,-32.79687 32.79687,-32.79687 18.10938,0 32.79297,14.68359 32.79297,32.79687 0,18.10938 -14.68359,32.79297 -32.79297,32.79297 z m 0,0"
       id="path13" />
  </g>
  <path
     d="m 320.08882,203.5258 c 0,8.7973 -7.13155,15.92885 -15.92696,15.92885 -8.79729,0 -15.92884,-7.13155 -15.92884,-15.92885 0,-8.7954 7.13155,-15.92696 15.92884,-15.92696 8.79541,0 15.92696,7.13156 15.92696,15.92696 z m 0,0"
     fill="#ffd866"
     id="path15"
     style="stroke-width:0.485682" />
  <path
     d="m383.605469 112.3125c-3.832031.003906-7.660157.234375-11.464844.691406-10.328125-33.632812-41.355469-56.617187-76.535156-56.691406-8.757813-.007812-17.453125 1.445312-25.730469 4.296875-20.488281-44.300781-69.042969-68.378906-116.707031-57.871094-47.667969 10.507813-81.597657 52.765625-81.5625 101.574219.003906 8.433594 1.054687 16.835938 3.117187 25.007812-45.414062 6.933594-77.859375 47.636719-74.484375 93.453126 3.371094 45.820312 41.425781 81.335937 87.367188 81.539062h296c53.019531 0 96-42.980469 96-96s-42.980469-96-96-96zm0 176h-296c-39.441407.171875-71.667969-31.441406-72.257813-70.878906-.585937-39.4375 30.683594-71.996094 70.113282-73 2.558593-.070313 4.929687-1.363282 6.375-3.476563 1.449218-2.113281 1.796874-4.789062.9375-7.203125-15.878907-45.441406 7.742187-95.203125 52.988281-111.632812 45.246093-16.429688 95.292969 6.589844 112.265625 51.632812.777344 2.089844 2.386718 3.757813 4.445312 4.609375 2.0625.851563 4.378906.804688 6.402344-.128906 8.375-3.894531 17.496094-5.914063 26.730469-5.921875 30.4375.054688 56.648437 21.496094 62.726562 51.320312.871094 4.335938 5.09375 7.140626 9.425781 6.265626 5.214844-1.046876 10.523438-1.578126 15.847657-1.585938 44.183593 0 80 35.820312 80 80 0 44.183594-35.816407 80-80 80zm0 0"
     fill="url(#a)"
     id="path3" />
  <path
     d="m 330.36783,241.35018 c -4.02395,-3.0393 -9.56376,-3.08863 -13.63894,-0.11763 l -30.13695,21.95625 -53.90311,-55.57454 c -4.25541,-4.38632 -11.20484,-4.65762 -15.78846,-0.6147 l -53.31689,47.03907 v 40.12378 c 0,0.8177 0.0626,1.62211 0.18213,2.40565 0.0399,0.25991 0.0854,0.51983 0.13849,0.77785 0.10625,0.51224 0.23526,1.01879 0.38893,1.51206 0.15367,0.49517 0.33201,0.97896 0.53121,1.45136 0.19921,0.4724 0.42118,0.93152 0.66403,1.37926 1.2161,2.23679 2.95582,4.14917 5.05602,5.56637 0.42118,0.28458 0.85374,0.54829 1.30148,0.79113 0.22387,0.12142 0.45153,0.23715 0.68109,0.34908 0.46102,0.22198 0.93342,0.42118 1.4172,0.59952 0.48379,0.17644 0.97706,0.33011 1.48171,0.45912 1.26164,0.32442 2.58399,0.49707 3.94617,0.49707 h 164.11879 c 5.99514,0 11.20863,-3.34097 13.88367,-8.26229 0.24285,-0.44774 0.46482,-0.90686 0.66403,-1.38116 0.1992,-0.4724 0.37754,-0.95619 0.53121,-1.44946 0.15367,-0.49517 0.28458,-0.99982 0.38892,-1.51396 0.0531,-0.25612 0.0987,-0.51604 0.1385,-0.77785 0.11952,-0.78354 0.18213,-1.58605 0.18213,-2.40375 V 263.1869 Z m 0,0"
     fill="#00b7ec"
     id="path14"
     style="stroke-width:0.485682" />
</svg>
